<?xml version="1.0" encoding="UTF-8"?>
<svg width="311.04pt" height="362.88pt" version="1.1" viewBox="0 0 311.04 362.88" xmlns="http://www.w3.org/2000/svg" xmlns:cc="http://creativecommons.org/ns#" xmlns:dc="http://purl.org/dc/elements/1.1/" xmlns:rdf="http://www.w3.org/1999/02/22-rdf-syntax-ns#">
 <path d="m33.962 21.608c4.6823 1.2541 5.6134 5.8045 7.1472 9.4418 1.2896 3.2128 4.0963 6.1143 3.624 9.2145-0.22722 3.5232-5.3322 2.5132-8.3009 4.2272-7.6315 4.406-7.2081 4.1616-7.7332-4.5815-0.57241-5.8874 2.1985-10.88 2.2949-16.588 0.84802-0.48961 1.696-0.97921 2.968-1.7136z" fill="#fff" stroke-width=".72"/>
 <path d="m111.97 111.68c-6.6092-11.448-9.9408-23.093-14.789-34.428-3.4928-7.0289-7.6544-14.237-11.571-21.021-2.9376-5.0881-4.3584-10.487-5.3552-16.13-1.456-13.293 9.079-20.505 22.193-21.292 11.597-0.47733 21.76 4.3964 31.141 10.853 11.877 7.8418 25.45 14.704 33.397 26.511 11.798 17.498 19.112 37.02 8.5162 57.835-5.4766 11.078-15.277 19.562-28.814 20.594-5.8874 0.5724-10.701-2.8673-15.448-5.2146-8.5818-4.0916-15.108-10.5-19.269-17.708z" fill="#fff" stroke-width=".72"/>
 <path d="m5.9059 171.79c-2.5795-6.4263-7.4093-13.814-5.0797-22.508 0.96164-2.2512 0.76486-5.5297 3.3745-5.9056 3.0336-0.62079 3.4096 1.9888 5.057 3.8644 4.0304 5.0225 8.24 9.3762 13.901 12.326 1.5824 0.78242 2.7408 1.8096 2.6278 3.5709-0.11361 1.7616-2.12 1.224-3.2135 1.29-5.153 1.8444-10.797 2.8416-11.675 10.133 0.06559 1.0928-1.2064 1.8272-2.1194 1.2236-1.3375-0.35681-1.6479-1.8736-2.8719-3.9937z" fill="#fff" stroke-width=".72"/>
 <path d="m88.961 16.99c-3.7505 3.296-6.4259 2.5802-8.8743-1.6605-1.958-3.3914-4.7642-6.2949-6.2989-9.9307-1.6003-4.7303-0.39356-6.5569 4.7121-5.5472 3.768 0.65124 6.5088 2.4609 9.9191 4.4494 3.1648 1.5648 6.1504 3.7985 9.3146 5.3637 0.9136 0.60322 2.2512 0.96162 1.8928 2.2992-0.35814 1.3366-1.2068 1.8266-2.2986 1.8924-2.7892 1.0442-6.0676 1.241-8.3669 3.1338z" fill="#fff" stroke-width=".72"/>
 <path d="m188.17 39.99c1.3372 0.35779 2.431 0.29245 3.7677 0.65061 6.6887 1.7917 11.812 6.7486 17.717 10.123 2.4957 1.385 1.2896 3.2128-0.65123 3.768-4.305 1.3548-7.6977 3.3136-10.6 6.12-1.4512 1.4032-3.6366 1.5334-4.192-0.40643-2.513-5.3332-4.6032-10.911-6.448-16.064-1.8262-1.2062-1.7126-2.9678 0.40679-4.1914z" fill="#fff" stroke-width=".72"/>
 <path d="m80.451 83.526c-6.7226-9.6869-14.473-18.215-22.648-26.498-6.7706-6.8325-13.149-7.108-13.149-7.108-3.343-0.89577-6.6215-0.69898-9.1009 1.8624-4.5325 4.8791-7.9074 10.784-10.612 16.869-5.0529 10.832-6.7622 22.56-8.4711 34.288-1.1233 6.8673-0.41931 14.941 2.8281 21.546 6.7414 13.633 14.509 26.109 27.545 34.977 9.6257 6.8801 21.109 8.165 32.281 7.9334 5.7095 0.0957 10.242-4.7828 14.416-8.3232 8.8389-6.233 16.322-16.773 10.609-31.565-0.79999-2.3648-1.7792-4.0608-3.0036-6.1815-4.7999-14.187-12.323-26.238-20.694-37.8z" fill="#fff" stroke-width=".72"/>
 <path d="m71.987 187.35c-8.6465-5.1841-18.923-8.2962-27.749-12.812-4.992-2.7713-10.098-3.7815-14.959-4.3672-5.5297-0.76484-9.3457 1.4384-11.692 6.1852-2.4128 3.6544-3.2439 8.0916-3.6503 12.284-1.0049 19.802 0.84456 39.652 9.4308 58.439 0.7344 1.272 4.6512 8.0562 5.8096 9.0834 2.6272 3.5712 5.858 6.2295 9.088 8.8866 12.074 11.12 25.384 13.612 40.535 6.5603 3.8816-1.1104 7.0289-3.4928 10.6-6.12 0 0 3.1472-2.3824 4.2231-6.3956 5.7873-9.5601 5.1308-20.488 5.813-31.058 0.40644-4.192-0.27995-8.3185-1.3903-12.2-6.4313-12.116-14.671-21.492-26.059-28.486z" fill="#fff" stroke-width=".72"/>
 <path d="m286.93 124.87c-0.55519-1.9408-0.68639-4.1264-1.2416-6.0673-6.728-24.383-19.877-31.49-19.877-31.49-0.24479-0.424-0.9136-0.60322-0.9136-0.60322-5.2365-3.1946-10.539-7.4827-15.597-11.346-8.0426-6.0981-16.689-11.282-26.232-13.122-15.562-3.4529-27.565 1.2152-27.543 19.859-0.22723 3.5232-0.0304 6.8017-0.25767 10.325-0.3537 16.034 3.419 31.381 4.1581 47.349 0.70874 22.77 31.61 47.895 52.959 41.788 14.857-4.6204 25.326-12.926 30.852-26.858 2.1022-5.1719 3.9602-10.767 4.3004-16.051 0.47166-3.0999 0.63266-7.7156-0.60829-13.783z" fill="#fff" stroke-width=".72"/>
 <path d="m282.16 198.86c-3.5885-1.3194-17.341-7.5128-18.01-7.693-6.0193-1.6129-10.635-1.7745-14.093-0.90891-5.2193 0.75197-10.259 0.8349-15.364-0.1751-3.5888-1.32-7.3569-1.9713-10.766-3.9601-11.078-5.4766-21.975-11.623-32.627-17.344-7.4881-4.1569-14.666-6.797-23.049-7.6102-15.61-0.59911-29.864 3.1087-40.561 14.938-9.669 10.67-15.684 23.754-17.44 38.336-2.1159 15.921-5.3241 31.906-8.777 47.468-2.9808 12.463-7.9681 24.388-9.3666 37.633-1.8039 17.437 4.5128 31.316 14.286 44.329 6.2336 8.8385 14.701 14.691 25.157 17.135 9.7876 2.2647 20.226 0.76014 29.996-0.92302 3.4576-0.86559 7.5841-1.552 10.552-3.2656l0.424-0.2448c0.42463-0.24516 10.355-6.544 15.313-11.668 2.7233-2.1376 5.2018-4.6993 6.7666-7.8641 4.4497-9.9185 11.771-15.842 19.941-22.255 12.164-9.2845 25.44-14.688 39.516-17.726 19.898-4.7039 37.724-11.038 49.119-29.49 6.9938-11.387 10.465-23.002 6.2195-35.25-4.3778-14.433-12.814-27.088-27.235-33.461z" fill="#fff" stroke-width=".72"/>
</svg>
